<svg width="96" height="15" viewBox="0 0 96 15" fill="none" xmlns="http://www.w3.org/2000/svg">
<path d="M13.1676 7.45455C13.1676 8.8821 12.897 10.0966 12.3558 11.098C11.8189 12.0994 11.0859 12.8643 10.157 13.3928C9.23224 13.9169 8.19247 14.179 7.03764 14.179C5.87429 14.179 4.83026 13.9148 3.90554 13.3864C2.98082 12.858 2.25 12.093 1.71307 11.0916C1.17614 10.0902 0.90767 8.87784 0.90767 7.45455C0.90767 6.02699 1.17614 4.8125 1.71307 3.81108C2.25 2.80966 2.98082 2.04687 3.90554 1.52273C4.83026 0.994318 5.87429 0.730113 7.03764 0.730113C8.19247 0.730113 9.23224 0.994318 10.157 1.52273C11.0859 2.04687 11.8189 2.80966 12.3558 3.81108C12.897 4.8125 13.1676 6.02699 13.1676 7.45455ZM10.3615 7.45455C10.3615 6.52983 10.223 5.75 9.94602 5.11506C9.6733 4.48011 9.28764 3.99858 8.78906 3.67045C8.29048 3.34233 7.70668 3.17827 7.03764 3.17827C6.36861 3.17827 5.7848 3.34233 5.28622 3.67045C4.78764 3.99858 4.39986 4.48011 4.12287 5.11506C3.85014 5.75 3.71378 6.52983 3.71378 7.45455C3.71378 8.37926 3.85014 9.15909 4.12287 9.79403C4.39986 10.429 4.78764 10.9105 5.28622 11.2386C5.7848 11.5668 6.36861 11.7308 7.03764 11.7308C7.70668 11.7308 8.29048 11.5668 8.78906 11.2386C9.28764 10.9105 9.6733 10.429 9.94602 9.79403C10.223 9.15909 10.3615 8.37926 10.3615 7.45455ZM21.4629 9.8196V4.18182H24.1859V14H21.5716V12.2166H21.4693C21.2477 12.7919 20.8791 13.2543 20.3635 13.6037C19.8521 13.9531 19.2278 14.1278 18.4906 14.1278C17.8343 14.1278 17.2569 13.9787 16.7583 13.6804C16.2598 13.3821 15.8699 12.9581 15.5886 12.4084C15.3116 11.8587 15.171 11.2003 15.1667 10.4332V4.18182H17.8897V9.94744C17.894 10.527 18.0495 10.9851 18.3564 11.3217C18.6632 11.6584 19.0744 11.8267 19.59 11.8267C19.9181 11.8267 20.225 11.7521 20.5105 11.603C20.796 11.4496 21.0261 11.2237 21.2008 10.9254C21.3798 10.6271 21.4672 10.2585 21.4629 9.8196ZM26.364 14V4.18182H29.0039V5.89489H29.1062C29.2852 5.28551 29.5856 4.82528 30.0075 4.5142C30.4293 4.19886 30.9151 4.04119 31.4648 4.04119C31.6012 4.04119 31.7482 4.04972 31.9059 4.06676C32.0636 4.08381 32.2021 4.10724 32.3214 4.13707V6.55327C32.1935 6.51491 32.0167 6.48082 31.7908 6.45099C31.565 6.42116 31.3583 6.40625 31.1708 6.40625C30.7702 6.40625 30.4123 6.49361 30.0969 6.66832C29.7859 6.83878 29.5387 7.07741 29.3555 7.38423C29.1765 7.69105 29.087 8.04474 29.087 8.44531V14H26.364ZM33.7804 0.909091H37.1937L40.7988 9.70455H40.9522L44.5574 0.909091H47.9707V14H45.286V5.4794H45.1774L41.7896 13.9361H39.9615L36.5737 5.44744H36.465V14H33.7804V0.909091ZM54.636 14.1918C53.6431 14.1918 52.7844 13.9808 52.06 13.5589C51.3398 13.1328 50.7837 12.5405 50.3917 11.782C49.9996 11.0192 49.8036 10.1349 49.8036 9.12926C49.8036 8.11506 49.9996 7.22869 50.3917 6.47017C50.7837 5.70739 51.3398 5.11506 52.06 4.69318C52.7844 4.26705 53.6431 4.05398 54.636 4.05398C55.6289 4.05398 56.4854 4.26705 57.2056 4.69318C57.93 5.11506 58.4883 5.70739 58.8803 6.47017C59.2724 7.22869 59.4684 8.11506 59.4684 9.12926C59.4684 10.1349 59.2724 11.0192 58.8803 11.782C58.4883 12.5405 57.93 13.1328 57.2056 13.5589C56.4854 13.9808 55.6289 14.1918 54.636 14.1918ZM54.6488 12.0824C55.1005 12.0824 55.4776 11.9545 55.7802 11.6989C56.0827 11.4389 56.3107 11.0852 56.4641 10.6378C56.6218 10.1903 56.7006 9.68111 56.7006 9.11009C56.7006 8.53906 56.6218 8.02983 56.4641 7.58239C56.3107 7.13494 56.0827 6.78125 55.7802 6.52131C55.4776 6.26136 55.1005 6.13139 54.6488 6.13139C54.1928 6.13139 53.8093 6.26136 53.4982 6.52131C53.1914 6.78125 52.9592 7.13494 52.8015 7.58239C52.6481 8.02983 52.5714 8.53906 52.5714 9.11009C52.5714 9.68111 52.6481 10.1903 52.8015 10.6378C52.9592 11.0852 53.1914 11.4389 53.4982 11.6989C53.8093 11.9545 54.1928 12.0824 54.6488 12.0824ZM70.076 4.18182L66.6435 14H63.5753L60.1428 4.18182H63.0192L65.0582 11.2067H65.1605L67.1932 4.18182H70.076ZM71.4695 14V4.18182H74.1925V14H71.4695ZM72.8374 2.91619C72.4325 2.91619 72.0852 2.78196 71.7955 2.51349C71.5099 2.24077 71.3672 1.91477 71.3672 1.53551C71.3672 1.16051 71.5099 0.838778 71.7955 0.570312C72.0852 0.297585 72.4325 0.161221 72.8374 0.161221C73.2422 0.161221 73.5874 0.297585 73.8729 0.570312C74.1626 0.838778 74.3075 1.16051 74.3075 1.53551C74.3075 1.91477 74.1626 2.24077 73.8729 2.51349C73.5874 2.78196 73.2422 2.91619 72.8374 2.91619ZM80.8482 14.1918C79.8382 14.1918 78.9689 13.9872 78.2402 13.5781C77.5158 13.1648 76.9576 12.581 76.5655 11.8267C76.1735 11.0682 75.9775 10.1712 75.9775 9.13565C75.9775 8.12571 76.1735 7.23935 76.5655 6.47656C76.9576 5.71378 77.5094 5.11932 78.2211 4.69318C78.937 4.26705 79.7765 4.05398 80.7395 4.05398C81.3873 4.05398 81.9902 4.15838 82.5485 4.36719C83.111 4.57173 83.601 4.88068 84.0186 5.29403C84.4405 5.70739 84.7686 6.22727 85.003 6.85369C85.2374 7.47585 85.3546 8.20455 85.3546 9.03977V9.78764H77.0641V8.10014H82.7914C82.7914 7.7081 82.7061 7.3608 82.5357 7.05824C82.3652 6.75568 82.1287 6.51918 81.8262 6.34872C81.5279 6.17401 81.1806 6.08665 80.7843 6.08665C80.3709 6.08665 80.0044 6.18253 79.6848 6.37429C79.3695 6.56179 79.1223 6.81534 78.9434 7.13494C78.7644 7.45028 78.6728 7.80185 78.6685 8.18963V9.79403C78.6685 10.2798 78.758 10.6996 78.937 11.0533C79.1202 11.407 79.378 11.6797 79.7104 11.8714C80.0428 12.0632 80.437 12.1591 80.8929 12.1591C81.1955 12.1591 81.4725 12.1165 81.7239 12.0312C81.9753 11.946 82.1905 11.8182 82.3695 11.6477C82.5485 11.4773 82.6848 11.2685 82.7786 11.0213L85.2971 11.1875C85.1692 11.7926 84.9071 12.321 84.5108 12.7727C84.1188 13.2202 83.6117 13.5696 82.9895 13.821C82.3716 14.0682 81.6578 14.1918 80.8482 14.1918ZM95.3006 6.98153L92.8077 7.13494C92.7651 6.92187 92.6735 6.73011 92.5328 6.55966C92.3922 6.38494 92.2069 6.24645 91.9767 6.14418C91.7509 6.03764 91.4803 5.98438 91.165 5.98438C90.7431 5.98438 90.3873 6.07386 90.0975 6.25284C89.8077 6.42756 89.6628 6.66193 89.6628 6.95597C89.6628 7.19034 89.7566 7.38849 89.9441 7.55043C90.1316 7.71236 90.4533 7.84233 90.9093 7.94034L92.6863 8.2983C93.6408 8.49432 94.3525 8.80966 94.8212 9.24432C95.29 9.67898 95.5243 10.25 95.5243 10.9574C95.5243 11.6009 95.3347 12.1655 94.9554 12.6513C94.5804 13.1371 94.0648 13.5163 93.4086 13.7891C92.7566 14.0575 92.0044 14.1918 91.1522 14.1918C89.8525 14.1918 88.8169 13.9212 88.0456 13.38C87.2786 12.8345 86.829 12.093 86.6969 11.1555L89.3752 11.0149C89.4561 11.4112 89.6522 11.7138 89.9632 11.9226C90.2743 12.1271 90.6728 12.2294 91.1586 12.2294C91.6358 12.2294 92.0194 12.1378 92.3091 11.9545C92.6032 11.767 92.7523 11.5263 92.7566 11.2322C92.7523 10.9851 92.6479 10.7827 92.4434 10.625C92.2388 10.4631 91.9235 10.3395 91.4973 10.2543L89.7971 9.91548C88.8382 9.72372 88.1245 9.39134 87.6557 8.91832C87.1912 8.44531 86.959 7.84233 86.959 7.10938C86.959 6.47869 87.1294 5.93537 87.4703 5.4794C87.8155 5.02344 88.2992 4.67188 88.9213 4.42472C89.5478 4.17756 90.2807 4.05398 91.1202 4.05398C92.3603 4.05398 93.3361 4.31605 94.0478 4.8402C94.7637 5.36435 95.1813 6.07812 95.3006 6.98153Z" fill="#E8EDFF"/>
</svg>
